<?xml version="1.0" standalone="no"?>
<!DOCTYPE svg PUBLIC "-//W3C//DTD SVG 20010904//EN"
 "http://www.w3.org/TR/2001/REC-SVG-20010904/DTD/svg10.dtd">
<svg version="1.0" xmlns="http://www.w3.org/2000/svg"
 width="3358.000000pt" height="1540.000000pt" viewBox="0 0 3358.000000 1540.000000"
 preserveAspectRatio="xMidYMid meet">

<g transform="translate(0.000000,1540.000000) scale(0.100000,-0.100000)"
fill="#000000" stroke="none">
<path d="M17614 11158 c-2176 -2334 -3963 -4249 -3969 -4256 -10 -11 -314 308
-1630 1712 -890 950 -1622 1725 -1626 1724 -11 -4 -1909 -2389 -1909 -2399 0
-9 5136 -5522 5149 -5527 4 -1 2158 2333 4787 5188 l4779 5190 2720 -3 2720
-3 85 -21 c247 -62 475 -186 692 -378 310 -274 529 -709 578 -1150 43 -390
-64 -874 -274 -1240 -89 -156 -163 -252 -291 -380 -215 -215 -457 -359 -716
-425 -212 -55 -159 -53 -1391 -59 l-1147 -6 -1198 -1300 -1197 -1300 2504 -5
2505 -6 145 -23 c286 -45 511 -115 730 -227 183 -94 294 -177 460 -344 161
-161 241 -267 325 -430 135 -264 193 -541 182 -865 -13 -394 -141 -768 -392
-1145 -277 -418 -658 -710 -1061 -815 -211 -55 -213 -55 -1662 -55 l-1337 -1
-1199 -1302 -1198 -1302 2558 -3 c1745 -2 2635 0 2799 8 657 30 1271 135 1780
305 516 172 965 427 1354 770 535 472 947 1176 1141 1954 94 376 141 731 161
1228 28 714 -74 1216 -367 1793 -491 971 -1288 1660 -2224 1925 -117 33 -319
73 -413 81 -43 4 -76 8 -74 10 1 2 45 8 97 14 360 43 659 164 979 398 547 399
956 971 1200 1677 137 395 189 729 176 1130 -31 989 -174 1643 -494 2250 -267
507 -595 877 -1039 1169 -587 386 -1211 565 -2315 663 -163 15 -564 17 -3854
20 l-3672 4 -3957 -4243z"/>
</g>
</svg>
